<svg xmlns="http://www.w3.org/2000/svg" viewBox="0 0 512 512" width="512" height="512" shape-rendering="crispEdges"><rect x="72" y="40" width="368" height="8" fill="#3c3a36"></rect><rect x="72" y="48" width="8" height="8" fill="#3c3a36"></rect><rect x="432" y="48" width="8" height="8" fill="#3c3a36"></rect><rect x="80" y="48" width="352" height="8" fill="#faf8f4"></rect><rect x="72" y="56" width="8" height="8" fill="#3c3a36"></rect><rect x="432" y="56" width="8" height="8" fill="#3c3a36"></rect><rect x="80" y="56" width="8" height="8" fill="#f0eee8"></rect><rect x="104" y="56" width="304" height="8" fill="#f0eee8"></rect><rect x="424" y="56" width="8" height="8" fill="#f0eee8"></rect><rect x="88" y="56" width="8" height="8" fill="#787369"></rect><rect x="408" y="56" width="8" height="8" fill="#787369"></rect><rect x="96" y="56" width="8" height="8" fill="#a09b91"></rect><rect x="416" y="56" width="8" height="8" fill="#a09b91"></rect><rect x="72" y="64" width="8" height="8" fill="#3c3a36"></rect><rect x="432" y="64" width="8" height="8" fill="#3c3a36"></rect><rect x="80" y="64" width="8" height="8" fill="#f0eee8"></rect><rect x="424" y="64" width="8" height="8" fill="#f0eee8"></rect><rect x="88" y="64" width="16" height="8" fill="#a09b91"></rect><rect x="408" y="64" width="16" height="8" fill="#a09b91"></rect><rect x="104" y="64" width="304" height="8" fill="#0f0c0a"></rect><rect x="72" y="72" width="8" height="8" fill="#3c3a36"></rect><rect x="432" y="72" width="8" height="8" fill="#3c3a36"></rect><rect x="80" y="72" width="24" height="8" fill="#f0eee8"></rect><rect x="408" y="72" width="24" height="8" fill="#f0eee8"></rect><rect x="104" y="72" width="8" height="8" fill="#0f0c0a"></rect><rect x="400" y="72" width="8" height="8" fill="#0f0c0a"></rect><rect x="112" y="72" width="8" height="8" fill="#0a0806"></rect><rect x="128" y="72" width="248" height="8" fill="#0a0806"></rect><rect x="384" y="72" width="16" height="8" fill="#0a0806"></rect><rect x="120" y="72" width="8" height="8" fill="#dcc828"></rect><rect x="376" y="72" width="8" height="8" fill="#dcc828"></rect><rect x="72" y="80" width="8" height="8" fill="#3c3a36"></rect><rect x="432" y="80" width="8" height="8" fill="#3c3a36"></rect><rect x="80" y="80" width="24" height="8" fill="#f0eee8"></rect><rect x="408" y="80" width="24" height="8" fill="#f0eee8"></rect><rect x="104" y="80" width="8" height="8" fill="#0f0c0a"></rect><rect x="400" y="80" width="8" height="8" fill="#0f0c0a"></rect><rect x="112" y="80" width="288" height="8" fill="#0a0806"></rect><rect x="72" y="88" width="8" height="8" fill="#3c3a36"></rect><rect x="432" y="88" width="8" height="8" fill="#3c3a36"></rect><rect x="80" y="88" width="24" height="8" fill="#f0eee8"></rect><rect x="408" y="88" width="24" height="8" fill="#f0eee8"></rect><rect x="104" y="88" width="8" height="8" fill="#0f0c0a"></rect><rect x="400" y="88" width="8" height="8" fill="#0f0c0a"></rect><rect x="112" y="88" width="288" height="8" fill="#0a0806"></rect><rect x="72" y="96" width="8" height="8" fill="#3c3a36"></rect><rect x="432" y="96" width="8" height="8" fill="#3c3a36"></rect><rect x="80" y="96" width="24" height="8" fill="#f0eee8"></rect><rect x="408" y="96" width="24" height="8" fill="#f0eee8"></rect><rect x="104" y="96" width="8" height="8" fill="#0f0c0a"></rect><rect x="400" y="96" width="8" height="8" fill="#0f0c0a"></rect><rect x="112" y="96" width="16" height="8" fill="#0a0806"></rect><rect x="144" y="96" width="8" height="8" fill="#0a0806"></rect><rect x="168" y="96" width="8" height="8" fill="#0a0806"></rect><rect x="192" y="96" width="8" height="8" fill="#0a0806"></rect><rect x="216" y="96" width="8" height="8" fill="#0a0806"></rect><rect x="240" y="96" width="8" height="8" fill="#0a0806"></rect><rect x="264" y="96" width="8" height="8" fill="#0a0806"></rect><rect x="288" y="96" width="8" height="8" fill="#0a0806"></rect><rect x="312" y="96" width="8" height="8" fill="#0a0806"></rect><rect x="336" y="96" width="8" height="8" fill="#0a0806"></rect><rect x="360" y="96" width="8" height="8" fill="#0a0806"></rect><rect x="384" y="96" width="16" height="8" fill="#0a0806"></rect><rect x="128" y="96" width="16" height="8" fill="#420d0a"></rect><rect x="152" y="96" width="16" height="8" fill="#420d0a"></rect><rect x="176" y="96" width="16" height="8" fill="#420d0a"></rect><rect x="320" y="96" width="16" height="8" fill="#420d0a"></rect><rect x="344" y="96" width="16" height="8" fill="#420d0a"></rect><rect x="368" y="96" width="16" height="8" fill="#420d0a"></rect><rect x="200" y="96" width="16" height="8" fill="#492e0a"></rect><rect x="296" y="96" width="16" height="8" fill="#492e0a"></rect><rect x="224" y="96" width="16" height="8" fill="#503c0a"></rect><rect x="272" y="96" width="16" height="8" fill="#503c0a"></rect><rect x="248" y="96" width="16" height="8" fill="#28ff3c"></rect><rect x="72" y="104" width="8" height="8" fill="#3c3a36"></rect><rect x="432" y="104" width="8" height="8" fill="#3c3a36"></rect><rect x="80" y="104" width="24" height="8" fill="#f0eee8"></rect><rect x="408" y="104" width="24" height="8" fill="#f0eee8"></rect><rect x="104" y="104" width="8" height="8" fill="#0f0c0a"></rect><rect x="400" y="104" width="8" height="8" fill="#0f0c0a"></rect><rect x="112" y="104" width="16" height="8" fill="#0a0806"></rect><rect x="144" y="104" width="8" height="8" fill="#0a0806"></rect><rect x="168" y="104" width="8" height="8" fill="#0a0806"></rect><rect x="192" y="104" width="8" height="8" fill="#0a0806"></rect><rect x="216" y="104" width="8" height="8" fill="#0a0806"></rect><rect x="240" y="104" width="8" height="8" fill="#0a0806"></rect><rect x="264" y="104" width="8" height="8" fill="#0a0806"></rect><rect x="288" y="104" width="8" height="8" fill="#0a0806"></rect><rect x="312" y="104" width="8" height="8" fill="#0a0806"></rect><rect x="336" y="104" width="8" height="8" fill="#0a0806"></rect><rect x="360" y="104" width="8" height="8" fill="#0a0806"></rect><rect x="384" y="104" width="16" height="8" fill="#0a0806"></rect><rect x="128" y="104" width="16" height="8" fill="#420d0a"></rect><rect x="152" y="104" width="16" height="8" fill="#420d0a"></rect><rect x="176" y="104" width="16" height="8" fill="#420d0a"></rect><rect x="320" y="104" width="16" height="8" fill="#420d0a"></rect><rect x="344" y="104" width="16" height="8" fill="#420d0a"></rect><rect x="368" y="104" width="16" height="8" fill="#420d0a"></rect><rect x="200" y="104" width="16" height="8" fill="#492e0a"></rect><rect x="296" y="104" width="16" height="8" fill="#492e0a"></rect><rect x="224" y="104" width="16" height="8" fill="#503c0a"></rect><rect x="272" y="104" width="16" height="8" fill="#503c0a"></rect><rect x="248" y="104" width="16" height="8" fill="#28ff3c"></rect><rect x="72" y="112" width="8" height="8" fill="#3c3a36"></rect><rect x="432" y="112" width="8" height="8" fill="#3c3a36"></rect><rect x="80" y="112" width="24" height="8" fill="#f0eee8"></rect><rect x="408" y="112" width="24" height="8" fill="#f0eee8"></rect><rect x="104" y="112" width="8" height="8" fill="#0f0c0a"></rect><rect x="400" y="112" width="8" height="8" fill="#0f0c0a"></rect><rect x="112" y="112" width="288" height="8" fill="#0a0806"></rect><rect x="72" y="120" width="8" height="8" fill="#3c3a36"></rect><rect x="432" y="120" width="8" height="8" fill="#3c3a36"></rect><rect x="80" y="120" width="24" height="8" fill="#f0eee8"></rect><rect x="408" y="120" width="24" height="8" fill="#f0eee8"></rect><rect x="104" y="120" width="8" height="8" fill="#0f0c0a"></rect><rect x="400" y="120" width="8" height="8" fill="#0f0c0a"></rect><rect x="112" y="120" width="288" height="8" fill="#0a0806"></rect><rect x="72" y="128" width="8" height="8" fill="#3c3a36"></rect><rect x="432" y="128" width="8" height="8" fill="#3c3a36"></rect><rect x="80" y="128" width="24" height="8" fill="#f0eee8"></rect><rect x="408" y="128" width="24" height="8" fill="#f0eee8"></rect><rect x="104" y="128" width="8" height="8" fill="#0f0c0a"></rect><rect x="400" y="128" width="8" height="8" fill="#0f0c0a"></rect><rect x="112" y="128" width="112" height="8" fill="#0a0806"></rect><rect x="264" y="128" width="136" height="8" fill="#0a0806"></rect><rect x="224" y="128" width="40" height="8" fill="#ff281e"></rect><rect x="72" y="136" width="8" height="8" fill="#3c3a36"></rect><rect x="432" y="136" width="8" height="8" fill="#3c3a36"></rect><rect x="80" y="136" width="24" height="8" fill="#f0eee8"></rect><rect x="408" y="136" width="24" height="8" fill="#f0eee8"></rect><rect x="104" y="136" width="8" height="8" fill="#0f0c0a"></rect><rect x="400" y="136" width="8" height="8" fill="#0f0c0a"></rect><rect x="112" y="136" width="104" height="8" fill="#0a0806"></rect><rect x="224" y="136" width="40" height="8" fill="#0a0806"></rect><rect x="272" y="136" width="128" height="8" fill="#0a0806"></rect><rect x="216" y="136" width="8" height="8" fill="#ff281e"></rect><rect x="264" y="136" width="8" height="8" fill="#ff281e"></rect><rect x="72" y="144" width="8" height="8" fill="#3c3a36"></rect><rect x="432" y="144" width="8" height="8" fill="#3c3a36"></rect><rect x="80" y="144" width="24" height="8" fill="#f0eee8"></rect><rect x="408" y="144" width="24" height="8" fill="#f0eee8"></rect><rect x="104" y="144" width="8" height="8" fill="#0f0c0a"></rect><rect x="400" y="144" width="8" height="8" fill="#0f0c0a"></rect><rect x="112" y="144" width="104" height="8" fill="#0a0806"></rect><rect x="224" y="144" width="40" height="8" fill="#0a0806"></rect><rect x="272" y="144" width="8" height="8" fill="#0a0806"></rect><rect x="296" y="144" width="104" height="8" fill="#0a0806"></rect><rect x="216" y="144" width="8" height="8" fill="#ff281e"></rect><rect x="264" y="144" width="8" height="8" fill="#ff281e"></rect><rect x="280" y="144" width="16" height="8" fill="#961e19"></rect><rect x="72" y="152" width="8" height="8" fill="#3c3a36"></rect><rect x="432" y="152" width="8" height="8" fill="#3c3a36"></rect><rect x="80" y="152" width="24" height="8" fill="#f0eee8"></rect><rect x="408" y="152" width="24" height="8" fill="#f0eee8"></rect><rect x="104" y="152" width="8" height="8" fill="#0f0c0a"></rect><rect x="400" y="152" width="8" height="8" fill="#0f0c0a"></rect><rect x="112" y="152" width="104" height="8" fill="#0a0806"></rect><rect x="224" y="152" width="40" height="8" fill="#0a0806"></rect><rect x="272" y="152" width="8" height="8" fill="#0a0806"></rect><rect x="296" y="152" width="104" height="8" fill="#0a0806"></rect><rect x="216" y="152" width="8" height="8" fill="#ff281e"></rect><rect x="264" y="152" width="8" height="8" fill="#ff281e"></rect><rect x="280" y="152" width="16" height="8" fill="#961e19"></rect><rect x="72" y="160" width="8" height="8" fill="#3c3a36"></rect><rect x="432" y="160" width="8" height="8" fill="#3c3a36"></rect><rect x="80" y="160" width="24" height="8" fill="#f0eee8"></rect><rect x="408" y="160" width="24" height="8" fill="#f0eee8"></rect><rect x="104" y="160" width="8" height="8" fill="#0f0c0a"></rect><rect x="400" y="160" width="8" height="8" fill="#0f0c0a"></rect><rect x="112" y="160" width="112" height="8" fill="#0a0806"></rect><rect x="264" y="160" width="136" height="8" fill="#0a0806"></rect><rect x="224" y="160" width="40" height="8" fill="#ff281e"></rect><rect x="72" y="168" width="8" height="8" fill="#3c3a36"></rect><rect x="432" y="168" width="8" height="8" fill="#3c3a36"></rect><rect x="80" y="168" width="24" height="8" fill="#f0eee8"></rect><rect x="408" y="168" width="24" height="8" fill="#f0eee8"></rect><rect x="104" y="168" width="8" height="8" fill="#0f0c0a"></rect><rect x="400" y="168" width="8" height="8" fill="#0f0c0a"></rect><rect x="112" y="168" width="104" height="8" fill="#0a0806"></rect><rect x="224" y="168" width="40" height="8" fill="#0a0806"></rect><rect x="272" y="168" width="128" height="8" fill="#0a0806"></rect><rect x="216" y="168" width="8" height="8" fill="#ff281e"></rect><rect x="264" y="168" width="8" height="8" fill="#ff281e"></rect><rect x="72" y="176" width="8" height="8" fill="#3c3a36"></rect><rect x="432" y="176" width="8" height="8" fill="#3c3a36"></rect><rect x="80" y="176" width="24" height="8" fill="#f0eee8"></rect><rect x="408" y="176" width="24" height="8" fill="#f0eee8"></rect><rect x="104" y="176" width="8" height="8" fill="#0f0c0a"></rect><rect x="400" y="176" width="8" height="8" fill="#0f0c0a"></rect><rect x="112" y="176" width="104" height="8" fill="#0a0806"></rect><rect x="224" y="176" width="40" height="8" fill="#0a0806"></rect><rect x="272" y="176" width="128" height="8" fill="#0a0806"></rect><rect x="216" y="176" width="8" height="8" fill="#ff281e"></rect><rect x="264" y="176" width="8" height="8" fill="#ff281e"></rect><rect x="72" y="184" width="8" height="8" fill="#3c3a36"></rect><rect x="432" y="184" width="8" height="8" fill="#3c3a36"></rect><rect x="80" y="184" width="24" height="8" fill="#f0eee8"></rect><rect x="408" y="184" width="24" height="8" fill="#f0eee8"></rect><rect x="104" y="184" width="8" height="8" fill="#0f0c0a"></rect><rect x="400" y="184" width="8" height="8" fill="#0f0c0a"></rect><rect x="112" y="184" width="104" height="8" fill="#0a0806"></rect><rect x="224" y="184" width="40" height="8" fill="#0a0806"></rect><rect x="272" y="184" width="128" height="8" fill="#0a0806"></rect><rect x="216" y="184" width="8" height="8" fill="#ff281e"></rect><rect x="264" y="184" width="8" height="8" fill="#ff281e"></rect><rect x="72" y="192" width="8" height="8" fill="#3c3a36"></rect><rect x="432" y="192" width="8" height="8" fill="#3c3a36"></rect><rect x="80" y="192" width="24" height="8" fill="#f0eee8"></rect><rect x="408" y="192" width="24" height="8" fill="#f0eee8"></rect><rect x="104" y="192" width="8" height="8" fill="#0f0c0a"></rect><rect x="400" y="192" width="8" height="8" fill="#0f0c0a"></rect><rect x="112" y="192" width="288" height="8" fill="#0a0806"></rect><rect x="72" y="200" width="8" height="8" fill="#3c3a36"></rect><rect x="432" y="200" width="8" height="8" fill="#3c3a36"></rect><rect x="80" y="200" width="24" height="8" fill="#f0eee8"></rect><rect x="408" y="200" width="24" height="8" fill="#f0eee8"></rect><rect x="104" y="200" width="8" height="8" fill="#0f0c0a"></rect><rect x="400" y="200" width="8" height="8" fill="#0f0c0a"></rect><rect x="112" y="200" width="288" height="8" fill="#0a0806"></rect><rect x="72" y="208" width="8" height="8" fill="#3c3a36"></rect><rect x="432" y="208" width="8" height="8" fill="#3c3a36"></rect><rect x="80" y="208" width="24" height="8" fill="#f0eee8"></rect><rect x="408" y="208" width="24" height="8" fill="#f0eee8"></rect><rect x="104" y="208" width="8" height="8" fill="#0f0c0a"></rect><rect x="400" y="208" width="8" height="8" fill="#0f0c0a"></rect><rect x="112" y="208" width="288" height="8" fill="#0a0806"></rect><rect x="72" y="216" width="8" height="8" fill="#3c3a36"></rect><rect x="432" y="216" width="8" height="8" fill="#3c3a36"></rect><rect x="80" y="216" width="24" height="8" fill="#f0eee8"></rect><rect x="408" y="216" width="24" height="8" fill="#f0eee8"></rect><rect x="104" y="216" width="304" height="8" fill="#0f0c0a"></rect><rect x="72" y="224" width="8" height="8" fill="#3c3a36"></rect><rect x="432" y="224" width="8" height="8" fill="#3c3a36"></rect><rect x="80" y="224" width="352" height="8" fill="#f0eee8"></rect><rect x="72" y="232" width="8" height="8" fill="#3c3a36"></rect><rect x="432" y="232" width="8" height="8" fill="#3c3a36"></rect><rect x="80" y="232" width="40" height="8" fill="#f0eee8"></rect><rect x="136" y="232" width="240" height="8" fill="#f0eee8"></rect><rect x="392" y="232" width="40" height="8" fill="#f0eee8"></rect><rect x="120" y="232" width="16" height="8" fill="#c8281e"></rect><rect x="376" y="232" width="16" height="8" fill="#c8281e"></rect><rect x="72" y="240" width="8" height="8" fill="#3c3a36"></rect><rect x="432" y="240" width="8" height="8" fill="#3c3a36"></rect><rect x="80" y="240" width="24" height="8" fill="#f0eee8"></rect><rect x="184" y="240" width="144" height="8" fill="#f0eee8"></rect><rect x="408" y="240" width="24" height="8" fill="#f0eee8"></rect><rect x="104" y="240" width="80" height="8" fill="#c8281e"></rect><rect x="328" y="240" width="80" height="8" fill="#c8281e"></rect><rect x="72" y="248" width="8" height="8" fill="#3c3a36"></rect><rect x="432" y="248" width="8" height="8" fill="#3c3a36"></rect><rect x="80" y="248" width="32" height="8" fill="#f0eee8"></rect><rect x="184" y="248" width="144" height="8" fill="#f0eee8"></rect><rect x="400" y="248" width="32" height="8" fill="#f0eee8"></rect><rect x="112" y="248" width="72" height="8" fill="#c8281e"></rect><rect x="328" y="248" width="72" height="8" fill="#c8281e"></rect><rect x="72" y="256" width="8" height="8" fill="#3c3a36"></rect><rect x="432" y="256" width="8" height="8" fill="#3c3a36"></rect><rect x="80" y="256" width="40" height="8" fill="#f0eee8"></rect><rect x="136" y="256" width="240" height="8" fill="#f0eee8"></rect><rect x="392" y="256" width="40" height="8" fill="#f0eee8"></rect><rect x="120" y="256" width="16" height="8" fill="#c8281e"></rect><rect x="376" y="256" width="16" height="8" fill="#c8281e"></rect><rect x="72" y="264" width="8" height="8" fill="#3c3a36"></rect><rect x="432" y="264" width="8" height="8" fill="#3c3a36"></rect><rect x="80" y="264" width="352" height="8" fill="#f0eee8"></rect><rect x="72" y="272" width="8" height="8" fill="#3c3a36"></rect><rect x="432" y="272" width="8" height="8" fill="#3c3a36"></rect><rect x="80" y="272" width="32" height="8" fill="#f0eee8"></rect><rect x="400" y="272" width="32" height="8" fill="#f0eee8"></rect><rect x="112" y="272" width="288" height="8" fill="#373430"></rect><rect x="72" y="280" width="8" height="8" fill="#3c3a36"></rect><rect x="432" y="280" width="8" height="8" fill="#3c3a36"></rect><rect x="80" y="280" width="32" height="8" fill="#f0eee8"></rect><rect x="400" y="280" width="32" height="8" fill="#f0eee8"></rect><rect x="112" y="280" width="8" height="8" fill="#2d2a26"></rect><rect x="128" y="280" width="8" height="8" fill="#2d2a26"></rect><rect x="144" y="280" width="8" height="8" fill="#2d2a26"></rect><rect x="160" y="280" width="8" height="8" fill="#2d2a26"></rect><rect x="176" y="280" width="8" height="8" fill="#2d2a26"></rect><rect x="192" y="280" width="8" height="8" fill="#2d2a26"></rect><rect x="208" y="280" width="8" height="8" fill="#2d2a26"></rect><rect x="224" y="280" width="8" height="8" fill="#2d2a26"></rect><rect x="240" y="280" width="8" height="8" fill="#2d2a26"></rect><rect x="256" y="280" width="8" height="8" fill="#2d2a26"></rect><rect x="272" y="280" width="8" height="8" fill="#2d2a26"></rect><rect x="288" y="280" width="8" height="8" fill="#2d2a26"></rect><rect x="304" y="280" width="8" height="8" fill="#2d2a26"></rect><rect x="320" y="280" width="8" height="8" fill="#2d2a26"></rect><rect x="336" y="280" width="8" height="8" fill="#2d2a26"></rect><rect x="352" y="280" width="8" height="8" fill="#2d2a26"></rect><rect x="368" y="280" width="8" height="8" fill="#2d2a26"></rect><rect x="384" y="280" width="16" height="8" fill="#2d2a26"></rect><rect x="120" y="280" width="8" height="8" fill="#23201c"></rect><rect x="136" y="280" width="8" height="8" fill="#23201c"></rect><rect x="152" y="280" width="8" height="8" fill="#23201c"></rect><rect x="168" y="280" width="8" height="8" fill="#23201c"></rect><rect x="184" y="280" width="8" height="8" fill="#23201c"></rect><rect x="200" y="280" width="8" height="8" fill="#23201c"></rect><rect x="216" y="280" width="8" height="8" fill="#23201c"></rect><rect x="232" y="280" width="8" height="8" fill="#23201c"></rect><rect x="248" y="280" width="8" height="8" fill="#23201c"></rect><rect x="264" y="280" width="8" height="8" fill="#23201c"></rect><rect x="280" y="280" width="8" height="8" fill="#23201c"></rect><rect x="296" y="280" width="8" height="8" fill="#23201c"></rect><rect x="312" y="280" width="8" height="8" fill="#23201c"></rect><rect x="328" y="280" width="8" height="8" fill="#23201c"></rect><rect x="344" y="280" width="8" height="8" fill="#23201c"></rect><rect x="360" y="280" width="8" height="8" fill="#23201c"></rect><rect x="376" y="280" width="8" height="8" fill="#23201c"></rect><rect x="72" y="288" width="8" height="8" fill="#3c3a36"></rect><rect x="432" y="288" width="8" height="8" fill="#3c3a36"></rect><rect x="80" y="288" width="32" height="8" fill="#f0eee8"></rect><rect x="400" y="288" width="32" height="8" fill="#f0eee8"></rect><rect x="112" y="288" width="288" height="8" fill="#2d2a26"></rect><rect x="72" y="296" width="8" height="8" fill="#3c3a36"></rect><rect x="432" y="296" width="8" height="8" fill="#3c3a36"></rect><rect x="80" y="296" width="32" height="8" fill="#f0eee8"></rect><rect x="400" y="296" width="32" height="8" fill="#f0eee8"></rect><rect x="112" y="296" width="8" height="8" fill="#2d2a26"></rect><rect x="128" y="296" width="8" height="8" fill="#2d2a26"></rect><rect x="144" y="296" width="8" height="8" fill="#2d2a26"></rect><rect x="160" y="296" width="8" height="8" fill="#2d2a26"></rect><rect x="176" y="296" width="8" height="8" fill="#2d2a26"></rect><rect x="192" y="296" width="8" height="8" fill="#2d2a26"></rect><rect x="208" y="296" width="8" height="8" fill="#2d2a26"></rect><rect x="224" y="296" width="8" height="8" fill="#2d2a26"></rect><rect x="240" y="296" width="8" height="8" fill="#2d2a26"></rect><rect x="256" y="296" width="8" height="8" fill="#2d2a26"></rect><rect x="272" y="296" width="8" height="8" fill="#2d2a26"></rect><rect x="288" y="296" width="8" height="8" fill="#2d2a26"></rect><rect x="304" y="296" width="8" height="8" fill="#2d2a26"></rect><rect x="320" y="296" width="8" height="8" fill="#2d2a26"></rect><rect x="336" y="296" width="8" height="8" fill="#2d2a26"></rect><rect x="352" y="296" width="8" height="8" fill="#2d2a26"></rect><rect x="368" y="296" width="8" height="8" fill="#2d2a26"></rect><rect x="384" y="296" width="16" height="8" fill="#2d2a26"></rect><rect x="120" y="296" width="8" height="8" fill="#23201c"></rect><rect x="136" y="296" width="8" height="8" fill="#23201c"></rect><rect x="152" y="296" width="8" height="8" fill="#23201c"></rect><rect x="168" y="296" width="8" height="8" fill="#23201c"></rect><rect x="184" y="296" width="8" height="8" fill="#23201c"></rect><rect x="200" y="296" width="8" height="8" fill="#23201c"></rect><rect x="216" y="296" width="8" height="8" fill="#23201c"></rect><rect x="232" y="296" width="8" height="8" fill="#23201c"></rect><rect x="248" y="296" width="8" height="8" fill="#23201c"></rect><rect x="264" y="296" width="8" height="8" fill="#23201c"></rect><rect x="280" y="296" width="8" height="8" fill="#23201c"></rect><rect x="296" y="296" width="8" height="8" fill="#23201c"></rect><rect x="312" y="296" width="8" height="8" fill="#23201c"></rect><rect x="328" y="296" width="8" height="8" fill="#23201c"></rect><rect x="344" y="296" width="8" height="8" fill="#23201c"></rect><rect x="360" y="296" width="8" height="8" fill="#23201c"></rect><rect x="376" y="296" width="8" height="8" fill="#23201c"></rect><rect x="72" y="304" width="8" height="8" fill="#3c3a36"></rect><rect x="432" y="304" width="8" height="8" fill="#3c3a36"></rect><rect x="80" y="304" width="32" height="8" fill="#f0eee8"></rect><rect x="400" y="304" width="32" height="8" fill="#f0eee8"></rect><rect x="112" y="304" width="288" height="8" fill="#2d2a26"></rect><rect x="72" y="312" width="8" height="8" fill="#3c3a36"></rect><rect x="432" y="312" width="8" height="8" fill="#3c3a36"></rect><rect x="80" y="312" width="32" height="8" fill="#f0eee8"></rect><rect x="400" y="312" width="32" height="8" fill="#f0eee8"></rect><rect x="112" y="312" width="8" height="8" fill="#2d2a26"></rect><rect x="128" y="312" width="8" height="8" fill="#2d2a26"></rect><rect x="144" y="312" width="8" height="8" fill="#2d2a26"></rect><rect x="160" y="312" width="8" height="8" fill="#2d2a26"></rect><rect x="176" y="312" width="8" height="8" fill="#2d2a26"></rect><rect x="192" y="312" width="8" height="8" fill="#2d2a26"></rect><rect x="208" y="312" width="8" height="8" fill="#2d2a26"></rect><rect x="224" y="312" width="8" height="8" fill="#2d2a26"></rect><rect x="240" y="312" width="8" height="8" fill="#2d2a26"></rect><rect x="256" y="312" width="8" height="8" fill="#2d2a26"></rect><rect x="272" y="312" width="8" height="8" fill="#2d2a26"></rect><rect x="288" y="312" width="8" height="8" fill="#2d2a26"></rect><rect x="304" y="312" width="8" height="8" fill="#2d2a26"></rect><rect x="320" y="312" width="8" height="8" fill="#2d2a26"></rect><rect x="336" y="312" width="8" height="8" fill="#2d2a26"></rect><rect x="352" y="312" width="8" height="8" fill="#2d2a26"></rect><rect x="368" y="312" width="8" height="8" fill="#2d2a26"></rect><rect x="384" y="312" width="16" height="8" fill="#2d2a26"></rect><rect x="120" y="312" width="8" height="8" fill="#23201c"></rect><rect x="136" y="312" width="8" height="8" fill="#23201c"></rect><rect x="152" y="312" width="8" height="8" fill="#23201c"></rect><rect x="168" y="312" width="8" height="8" fill="#23201c"></rect><rect x="184" y="312" width="8" height="8" fill="#23201c"></rect><rect x="200" y="312" width="8" height="8" fill="#23201c"></rect><rect x="216" y="312" width="8" height="8" fill="#23201c"></rect><rect x="232" y="312" width="8" height="8" fill="#23201c"></rect><rect x="248" y="312" width="8" height="8" fill="#23201c"></rect><rect x="264" y="312" width="8" height="8" fill="#23201c"></rect><rect x="280" y="312" width="8" height="8" fill="#23201c"></rect><rect x="296" y="312" width="8" height="8" fill="#23201c"></rect><rect x="312" y="312" width="8" height="8" fill="#23201c"></rect><rect x="328" y="312" width="8" height="8" fill="#23201c"></rect><rect x="344" y="312" width="8" height="8" fill="#23201c"></rect><rect x="360" y="312" width="8" height="8" fill="#23201c"></rect><rect x="376" y="312" width="8" height="8" fill="#23201c"></rect><rect x="72" y="320" width="8" height="8" fill="#3c3a36"></rect><rect x="432" y="320" width="8" height="8" fill="#3c3a36"></rect><rect x="80" y="320" width="32" height="8" fill="#f0eee8"></rect><rect x="400" y="320" width="32" height="8" fill="#f0eee8"></rect><rect x="112" y="320" width="288" height="8" fill="#2d2a26"></rect><rect x="72" y="328" width="8" height="8" fill="#3c3a36"></rect><rect x="432" y="328" width="8" height="8" fill="#3c3a36"></rect><rect x="80" y="328" width="32" height="8" fill="#f0eee8"></rect><rect x="400" y="328" width="32" height="8" fill="#f0eee8"></rect><rect x="112" y="328" width="8" height="8" fill="#2d2a26"></rect><rect x="128" y="328" width="8" height="8" fill="#2d2a26"></rect><rect x="144" y="328" width="8" height="8" fill="#2d2a26"></rect><rect x="160" y="328" width="8" height="8" fill="#2d2a26"></rect><rect x="176" y="328" width="8" height="8" fill="#2d2a26"></rect><rect x="192" y="328" width="8" height="8" fill="#2d2a26"></rect><rect x="208" y="328" width="8" height="8" fill="#2d2a26"></rect><rect x="224" y="328" width="8" height="8" fill="#2d2a26"></rect><rect x="240" y="328" width="8" height="8" fill="#2d2a26"></rect><rect x="256" y="328" width="8" height="8" fill="#2d2a26"></rect><rect x="272" y="328" width="8" height="8" fill="#2d2a26"></rect><rect x="288" y="328" width="8" height="8" fill="#2d2a26"></rect><rect x="304" y="328" width="8" height="8" fill="#2d2a26"></rect><rect x="320" y="328" width="8" height="8" fill="#2d2a26"></rect><rect x="336" y="328" width="8" height="8" fill="#2d2a26"></rect><rect x="352" y="328" width="8" height="8" fill="#2d2a26"></rect><rect x="368" y="328" width="8" height="8" fill="#2d2a26"></rect><rect x="384" y="328" width="16" height="8" fill="#2d2a26"></rect><rect x="120" y="328" width="8" height="8" fill="#23201c"></rect><rect x="136" y="328" width="8" height="8" fill="#23201c"></rect><rect x="152" y="328" width="8" height="8" fill="#23201c"></rect><rect x="168" y="328" width="8" height="8" fill="#23201c"></rect><rect x="184" y="328" width="8" height="8" fill="#23201c"></rect><rect x="200" y="328" width="8" height="8" fill="#23201c"></rect><rect x="216" y="328" width="8" height="8" fill="#23201c"></rect><rect x="232" y="328" width="8" height="8" fill="#23201c"></rect><rect x="248" y="328" width="8" height="8" fill="#23201c"></rect><rect x="264" y="328" width="8" height="8" fill="#23201c"></rect><rect x="280" y="328" width="8" height="8" fill="#23201c"></rect><rect x="296" y="328" width="8" height="8" fill="#23201c"></rect><rect x="312" y="328" width="8" height="8" fill="#23201c"></rect><rect x="328" y="328" width="8" height="8" fill="#23201c"></rect><rect x="344" y="328" width="8" height="8" fill="#23201c"></rect><rect x="360" y="328" width="8" height="8" fill="#23201c"></rect><rect x="376" y="328" width="8" height="8" fill="#23201c"></rect><rect x="72" y="336" width="8" height="8" fill="#3c3a36"></rect><rect x="432" y="336" width="8" height="8" fill="#3c3a36"></rect><rect x="80" y="336" width="32" height="8" fill="#f0eee8"></rect><rect x="400" y="336" width="32" height="8" fill="#f0eee8"></rect><rect x="112" y="336" width="288" height="8" fill="#2d2a26"></rect><rect x="72" y="344" width="8" height="8" fill="#3c3a36"></rect><rect x="432" y="344" width="8" height="8" fill="#3c3a36"></rect><rect x="80" y="344" width="32" height="8" fill="#f0eee8"></rect><rect x="400" y="344" width="32" height="8" fill="#f0eee8"></rect><rect x="112" y="344" width="8" height="8" fill="#2d2a26"></rect><rect x="128" y="344" width="8" height="8" fill="#2d2a26"></rect><rect x="144" y="344" width="8" height="8" fill="#2d2a26"></rect><rect x="160" y="344" width="8" height="8" fill="#2d2a26"></rect><rect x="176" y="344" width="8" height="8" fill="#2d2a26"></rect><rect x="192" y="344" width="8" height="8" fill="#2d2a26"></rect><rect x="208" y="344" width="8" height="8" fill="#2d2a26"></rect><rect x="224" y="344" width="8" height="8" fill="#2d2a26"></rect><rect x="240" y="344" width="8" height="8" fill="#2d2a26"></rect><rect x="256" y="344" width="8" height="8" fill="#2d2a26"></rect><rect x="272" y="344" width="8" height="8" fill="#2d2a26"></rect><rect x="288" y="344" width="8" height="8" fill="#2d2a26"></rect><rect x="304" y="344" width="8" height="8" fill="#2d2a26"></rect><rect x="320" y="344" width="8" height="8" fill="#2d2a26"></rect><rect x="336" y="344" width="8" height="8" fill="#2d2a26"></rect><rect x="352" y="344" width="8" height="8" fill="#2d2a26"></rect><rect x="368" y="344" width="8" height="8" fill="#2d2a26"></rect><rect x="384" y="344" width="16" height="8" fill="#2d2a26"></rect><rect x="120" y="344" width="8" height="8" fill="#23201c"></rect><rect x="136" y="344" width="8" height="8" fill="#23201c"></rect><rect x="152" y="344" width="8" height="8" fill="#23201c"></rect><rect x="168" y="344" width="8" height="8" fill="#23201c"></rect><rect x="184" y="344" width="8" height="8" fill="#23201c"></rect><rect x="200" y="344" width="8" height="8" fill="#23201c"></rect><rect x="216" y="344" width="8" height="8" fill="#23201c"></rect><rect x="232" y="344" width="8" height="8" fill="#23201c"></rect><rect x="248" y="344" width="8" height="8" fill="#23201c"></rect><rect x="264" y="344" width="8" height="8" fill="#23201c"></rect><rect x="280" y="344" width="8" height="8" fill="#23201c"></rect><rect x="296" y="344" width="8" height="8" fill="#23201c"></rect><rect x="312" y="344" width="8" height="8" fill="#23201c"></rect><rect x="328" y="344" width="8" height="8" fill="#23201c"></rect><rect x="344" y="344" width="8" height="8" fill="#23201c"></rect><rect x="360" y="344" width="8" height="8" fill="#23201c"></rect><rect x="376" y="344" width="8" height="8" fill="#23201c"></rect><rect x="72" y="352" width="8" height="8" fill="#3c3a36"></rect><rect x="432" y="352" width="8" height="8" fill="#3c3a36"></rect><rect x="80" y="352" width="32" height="8" fill="#f0eee8"></rect><rect x="400" y="352" width="32" height="8" fill="#f0eee8"></rect><rect x="112" y="352" width="288" height="8" fill="#2d2a26"></rect><rect x="72" y="360" width="8" height="8" fill="#3c3a36"></rect><rect x="432" y="360" width="8" height="8" fill="#3c3a36"></rect><rect x="80" y="360" width="32" height="8" fill="#f0eee8"></rect><rect x="400" y="360" width="32" height="8" fill="#f0eee8"></rect><rect x="112" y="360" width="8" height="8" fill="#2d2a26"></rect><rect x="128" y="360" width="8" height="8" fill="#2d2a26"></rect><rect x="144" y="360" width="8" height="8" fill="#2d2a26"></rect><rect x="160" y="360" width="8" height="8" fill="#2d2a26"></rect><rect x="176" y="360" width="8" height="8" fill="#2d2a26"></rect><rect x="192" y="360" width="8" height="8" fill="#2d2a26"></rect><rect x="208" y="360" width="8" height="8" fill="#2d2a26"></rect><rect x="224" y="360" width="8" height="8" fill="#2d2a26"></rect><rect x="240" y="360" width="8" height="8" fill="#2d2a26"></rect><rect x="256" y="360" width="8" height="8" fill="#2d2a26"></rect><rect x="272" y="360" width="8" height="8" fill="#2d2a26"></rect><rect x="288" y="360" width="8" height="8" fill="#2d2a26"></rect><rect x="304" y="360" width="8" height="8" fill="#2d2a26"></rect><rect x="320" y="360" width="8" height="8" fill="#2d2a26"></rect><rect x="336" y="360" width="8" height="8" fill="#2d2a26"></rect><rect x="352" y="360" width="8" height="8" fill="#2d2a26"></rect><rect x="368" y="360" width="8" height="8" fill="#2d2a26"></rect><rect x="384" y="360" width="16" height="8" fill="#2d2a26"></rect><rect x="120" y="360" width="8" height="8" fill="#23201c"></rect><rect x="136" y="360" width="8" height="8" fill="#23201c"></rect><rect x="152" y="360" width="8" height="8" fill="#23201c"></rect><rect x="168" y="360" width="8" height="8" fill="#23201c"></rect><rect x="184" y="360" width="8" height="8" fill="#23201c"></rect><rect x="200" y="360" width="8" height="8" fill="#23201c"></rect><rect x="216" y="360" width="8" height="8" fill="#23201c"></rect><rect x="232" y="360" width="8" height="8" fill="#23201c"></rect><rect x="248" y="360" width="8" height="8" fill="#23201c"></rect><rect x="264" y="360" width="8" height="8" fill="#23201c"></rect><rect x="280" y="360" width="8" height="8" fill="#23201c"></rect><rect x="296" y="360" width="8" height="8" fill="#23201c"></rect><rect x="312" y="360" width="8" height="8" fill="#23201c"></rect><rect x="328" y="360" width="8" height="8" fill="#23201c"></rect><rect x="344" y="360" width="8" height="8" fill="#23201c"></rect><rect x="360" y="360" width="8" height="8" fill="#23201c"></rect><rect x="376" y="360" width="8" height="8" fill="#23201c"></rect><rect x="72" y="368" width="8" height="8" fill="#3c3a36"></rect><rect x="432" y="368" width="8" height="8" fill="#3c3a36"></rect><rect x="80" y="368" width="32" height="8" fill="#f0eee8"></rect><rect x="400" y="368" width="32" height="8" fill="#f0eee8"></rect><rect x="112" y="368" width="288" height="8" fill="#2d2a26"></rect><rect x="72" y="376" width="8" height="8" fill="#3c3a36"></rect><rect x="432" y="376" width="8" height="8" fill="#3c3a36"></rect><rect x="80" y="376" width="32" height="8" fill="#f0eee8"></rect><rect x="400" y="376" width="32" height="8" fill="#f0eee8"></rect><rect x="112" y="376" width="8" height="8" fill="#2d2a26"></rect><rect x="128" y="376" width="8" height="8" fill="#2d2a26"></rect><rect x="144" y="376" width="8" height="8" fill="#2d2a26"></rect><rect x="160" y="376" width="8" height="8" fill="#2d2a26"></rect><rect x="176" y="376" width="8" height="8" fill="#2d2a26"></rect><rect x="192" y="376" width="8" height="8" fill="#2d2a26"></rect><rect x="208" y="376" width="8" height="8" fill="#2d2a26"></rect><rect x="224" y="376" width="8" height="8" fill="#2d2a26"></rect><rect x="240" y="376" width="8" height="8" fill="#2d2a26"></rect><rect x="256" y="376" width="8" height="8" fill="#2d2a26"></rect><rect x="272" y="376" width="8" height="8" fill="#2d2a26"></rect><rect x="288" y="376" width="8" height="8" fill="#2d2a26"></rect><rect x="304" y="376" width="8" height="8" fill="#2d2a26"></rect><rect x="320" y="376" width="8" height="8" fill="#2d2a26"></rect><rect x="336" y="376" width="8" height="8" fill="#2d2a26"></rect><rect x="352" y="376" width="8" height="8" fill="#2d2a26"></rect><rect x="368" y="376" width="8" height="8" fill="#2d2a26"></rect><rect x="384" y="376" width="16" height="8" fill="#2d2a26"></rect><rect x="120" y="376" width="8" height="8" fill="#23201c"></rect><rect x="136" y="376" width="8" height="8" fill="#23201c"></rect><rect x="152" y="376" width="8" height="8" fill="#23201c"></rect><rect x="168" y="376" width="8" height="8" fill="#23201c"></rect><rect x="184" y="376" width="8" height="8" fill="#23201c"></rect><rect x="200" y="376" width="8" height="8" fill="#23201c"></rect><rect x="216" y="376" width="8" height="8" fill="#23201c"></rect><rect x="232" y="376" width="8" height="8" fill="#23201c"></rect><rect x="248" y="376" width="8" height="8" fill="#23201c"></rect><rect x="264" y="376" width="8" height="8" fill="#23201c"></rect><rect x="280" y="376" width="8" height="8" fill="#23201c"></rect><rect x="296" y="376" width="8" height="8" fill="#23201c"></rect><rect x="312" y="376" width="8" height="8" fill="#23201c"></rect><rect x="328" y="376" width="8" height="8" fill="#23201c"></rect><rect x="344" y="376" width="8" height="8" fill="#23201c"></rect><rect x="360" y="376" width="8" height="8" fill="#23201c"></rect><rect x="376" y="376" width="8" height="8" fill="#23201c"></rect><rect x="72" y="384" width="8" height="8" fill="#3c3a36"></rect><rect x="432" y="384" width="8" height="8" fill="#3c3a36"></rect><rect x="80" y="384" width="32" height="8" fill="#f0eee8"></rect><rect x="400" y="384" width="32" height="8" fill="#f0eee8"></rect><rect x="112" y="384" width="288" height="8" fill="#2d2a26"></rect><rect x="72" y="392" width="8" height="8" fill="#3c3a36"></rect><rect x="432" y="392" width="8" height="8" fill="#3c3a36"></rect><rect x="80" y="392" width="32" height="8" fill="#f0eee8"></rect><rect x="400" y="392" width="32" height="8" fill="#f0eee8"></rect><rect x="112" y="392" width="8" height="8" fill="#2d2a26"></rect><rect x="128" y="392" width="8" height="8" fill="#2d2a26"></rect><rect x="144" y="392" width="8" height="8" fill="#2d2a26"></rect><rect x="160" y="392" width="8" height="8" fill="#2d2a26"></rect><rect x="176" y="392" width="8" height="8" fill="#2d2a26"></rect><rect x="192" y="392" width="8" height="8" fill="#2d2a26"></rect><rect x="208" y="392" width="8" height="8" fill="#2d2a26"></rect><rect x="224" y="392" width="8" height="8" fill="#2d2a26"></rect><rect x="240" y="392" width="8" height="8" fill="#2d2a26"></rect><rect x="256" y="392" width="8" height="8" fill="#2d2a26"></rect><rect x="272" y="392" width="8" height="8" fill="#2d2a26"></rect><rect x="288" y="392" width="8" height="8" fill="#2d2a26"></rect><rect x="304" y="392" width="8" height="8" fill="#2d2a26"></rect><rect x="320" y="392" width="8" height="8" fill="#2d2a26"></rect><rect x="336" y="392" width="8" height="8" fill="#2d2a26"></rect><rect x="352" y="392" width="8" height="8" fill="#2d2a26"></rect><rect x="368" y="392" width="8" height="8" fill="#2d2a26"></rect><rect x="384" y="392" width="16" height="8" fill="#2d2a26"></rect><rect x="120" y="392" width="8" height="8" fill="#23201c"></rect><rect x="136" y="392" width="8" height="8" fill="#23201c"></rect><rect x="152" y="392" width="8" height="8" fill="#23201c"></rect><rect x="168" y="392" width="8" height="8" fill="#23201c"></rect><rect x="184" y="392" width="8" height="8" fill="#23201c"></rect><rect x="200" y="392" width="8" height="8" fill="#23201c"></rect><rect x="216" y="392" width="8" height="8" fill="#23201c"></rect><rect x="232" y="392" width="8" height="8" fill="#23201c"></rect><rect x="248" y="392" width="8" height="8" fill="#23201c"></rect><rect x="264" y="392" width="8" height="8" fill="#23201c"></rect><rect x="280" y="392" width="8" height="8" fill="#23201c"></rect><rect x="296" y="392" width="8" height="8" fill="#23201c"></rect><rect x="312" y="392" width="8" height="8" fill="#23201c"></rect><rect x="328" y="392" width="8" height="8" fill="#23201c"></rect><rect x="344" y="392" width="8" height="8" fill="#23201c"></rect><rect x="360" y="392" width="8" height="8" fill="#23201c"></rect><rect x="376" y="392" width="8" height="8" fill="#23201c"></rect><rect x="72" y="400" width="8" height="8" fill="#3c3a36"></rect><rect x="432" y="400" width="8" height="8" fill="#3c3a36"></rect><rect x="80" y="400" width="32" height="8" fill="#f0eee8"></rect><rect x="400" y="400" width="32" height="8" fill="#f0eee8"></rect><rect x="112" y="400" width="288" height="8" fill="#2d2a26"></rect><rect x="72" y="408" width="8" height="8" fill="#3c3a36"></rect><rect x="432" y="408" width="8" height="8" fill="#3c3a36"></rect><rect x="80" y="408" width="32" height="8" fill="#f0eee8"></rect><rect x="400" y="408" width="32" height="8" fill="#f0eee8"></rect><rect x="112" y="408" width="8" height="8" fill="#2d2a26"></rect><rect x="128" y="408" width="8" height="8" fill="#2d2a26"></rect><rect x="144" y="408" width="8" height="8" fill="#2d2a26"></rect><rect x="160" y="408" width="8" height="8" fill="#2d2a26"></rect><rect x="176" y="408" width="8" height="8" fill="#2d2a26"></rect><rect x="192" y="408" width="8" height="8" fill="#2d2a26"></rect><rect x="208" y="408" width="8" height="8" fill="#2d2a26"></rect><rect x="224" y="408" width="8" height="8" fill="#2d2a26"></rect><rect x="240" y="408" width="8" height="8" fill="#2d2a26"></rect><rect x="256" y="408" width="8" height="8" fill="#2d2a26"></rect><rect x="272" y="408" width="8" height="8" fill="#2d2a26"></rect><rect x="288" y="408" width="8" height="8" fill="#2d2a26"></rect><rect x="304" y="408" width="8" height="8" fill="#2d2a26"></rect><rect x="320" y="408" width="8" height="8" fill="#2d2a26"></rect><rect x="336" y="408" width="8" height="8" fill="#2d2a26"></rect><rect x="352" y="408" width="8" height="8" fill="#2d2a26"></rect><rect x="368" y="408" width="8" height="8" fill="#2d2a26"></rect><rect x="384" y="408" width="16" height="8" fill="#2d2a26"></rect><rect x="120" y="408" width="8" height="8" fill="#23201c"></rect><rect x="136" y="408" width="8" height="8" fill="#23201c"></rect><rect x="152" y="408" width="8" height="8" fill="#23201c"></rect><rect x="168" y="408" width="8" height="8" fill="#23201c"></rect><rect x="184" y="408" width="8" height="8" fill="#23201c"></rect><rect x="200" y="408" width="8" height="8" fill="#23201c"></rect><rect x="216" y="408" width="8" height="8" fill="#23201c"></rect><rect x="232" y="408" width="8" height="8" fill="#23201c"></rect><rect x="248" y="408" width="8" height="8" fill="#23201c"></rect><rect x="264" y="408" width="8" height="8" fill="#23201c"></rect><rect x="280" y="408" width="8" height="8" fill="#23201c"></rect><rect x="296" y="408" width="8" height="8" fill="#23201c"></rect><rect x="312" y="408" width="8" height="8" fill="#23201c"></rect><rect x="328" y="408" width="8" height="8" fill="#23201c"></rect><rect x="344" y="408" width="8" height="8" fill="#23201c"></rect><rect x="360" y="408" width="8" height="8" fill="#23201c"></rect><rect x="376" y="408" width="8" height="8" fill="#23201c"></rect><rect x="72" y="416" width="8" height="8" fill="#3c3a36"></rect><rect x="432" y="416" width="8" height="8" fill="#3c3a36"></rect><rect x="80" y="416" width="32" height="8" fill="#f0eee8"></rect><rect x="400" y="416" width="32" height="8" fill="#f0eee8"></rect><rect x="112" y="416" width="288" height="8" fill="#2d2a26"></rect><rect x="72" y="424" width="8" height="8" fill="#3c3a36"></rect><rect x="432" y="424" width="8" height="8" fill="#3c3a36"></rect><rect x="80" y="424" width="8" height="8" fill="#f0eee8"></rect><rect x="104" y="424" width="8" height="8" fill="#f0eee8"></rect><rect x="400" y="424" width="8" height="8" fill="#f0eee8"></rect><rect x="424" y="424" width="8" height="8" fill="#f0eee8"></rect><rect x="88" y="424" width="8" height="8" fill="#787369"></rect><rect x="408" y="424" width="8" height="8" fill="#787369"></rect><rect x="96" y="424" width="8" height="8" fill="#a09b91"></rect><rect x="416" y="424" width="8" height="8" fill="#a09b91"></rect><rect x="112" y="424" width="288" height="8" fill="#2d2a26"></rect><rect x="72" y="432" width="8" height="8" fill="#3c3a36"></rect><rect x="432" y="432" width="8" height="8" fill="#3c3a36"></rect><rect x="80" y="432" width="8" height="8" fill="#f0eee8"></rect><rect x="104" y="432" width="304" height="8" fill="#f0eee8"></rect><rect x="424" y="432" width="8" height="8" fill="#f0eee8"></rect><rect x="88" y="432" width="16" height="8" fill="#a09b91"></rect><rect x="408" y="432" width="16" height="8" fill="#a09b91"></rect><rect x="72" y="440" width="8" height="8" fill="#3c3a36"></rect><rect x="432" y="440" width="8" height="8" fill="#3c3a36"></rect><rect x="80" y="440" width="152" height="8" fill="#dcd8d0"></rect><rect x="280" y="440" width="152" height="8" fill="#dcd8d0"></rect><rect x="232" y="440" width="48" height="8" fill="#141210"></rect><rect x="72" y="448" width="160" height="8" fill="#3c3a36"></rect><rect x="240" y="448" width="32" height="8" fill="#3c3a36"></rect><rect x="280" y="448" width="160" height="8" fill="#3c3a36"></rect><rect x="232" y="448" width="8" height="8" fill="#141210"></rect><rect x="272" y="448" width="8" height="8" fill="#141210"></rect><rect x="232" y="456" width="8" height="8" fill="#141210"></rect><rect x="272" y="456" width="8" height="8" fill="#141210"></rect><rect x="240" y="456" width="32" height="8" fill="#3c3a36"></rect><rect x="240" y="464" width="32" height="8" fill="#3c3a36"></rect></svg>